<?xml version="1.0" standalone="no"?>
<!DOCTYPE svg PUBLIC "-//W3C//DTD SVG 20010904//EN"
 "http://www.w3.org/TR/2001/REC-SVG-20010904/DTD/svg10.dtd">
<svg version="1.0" xmlns="http://www.w3.org/2000/svg"
 width="32.000000pt" height="32.000000pt" viewBox="0 0 32.000000 32.000000"
 preserveAspectRatio="xMidYMid meet">

<g transform="translate(0.000000,32.000000) scale(0.100000,-0.100000)"
fill="#000000" stroke="none">
<path d="M144 288 c-4 -7 -3 -8 4 -4 6 4 22 2 34 -4 22 -11 22 -10 4 4 -24 19
-32 20 -42 4z"/>
<path d="M84 254 c-18 -14 -18 -15 4 -4 12 6 22 13 22 15 0 8 -5 6 -26 -11z"/>
<path d="M230 256 c0 -3 9 -10 20 -16 11 -6 20 -8 20 -6 0 3 -9 10 -20 16 -11
6 -20 8 -20 6z"/>
<path d="M31 158 c0 -42 2 -79 7 -81 4 -3 6 20 4 51 -5 98 -9 110 -11 30z"/>
<path d="M280 153 c-3 -45 -1 -78 3 -74 4 4 7 41 5 82 l-3 74 -5 -82z"/>
<path d="M80 150 c0 -81 17 -95 22 -18 l3 52 32 -52 c29 -47 36 -52 68 -52 33
0 35 2 35 35 0 29 -4 35 -22 35 -21 0 -21 -1 -3 -13 21 -16 12 -37 -16 -37
-13 0 -32 19 -57 60 -50 80 -62 78 -62 -10z"/>
<path d="M160 186 c0 -19 5 -38 10 -41 6 -4 10 7 10 24 0 34 24 42 49 19 10
-11 12 -9 9 7 -2 15 -12 21 -41 23 -36 3 -37 3 -37 -32z"/>
<path d="M234 54 c-18 -14 -18 -15 4 -4 12 6 22 13 22 15 0 8 -5 6 -26 -11z"/>
<path d="M80 56 c0 -3 9 -10 20 -16 11 -6 20 -8 20 -6 0 3 -9 10 -20 16 -11 6
-20 8 -20 6z"/>
<path d="M165 20 c-16 -7 -17 -9 -3 -9 9 -1 20 4 23 9 7 11 7 11 -20 0z"/>
</g>
</svg>
